#!OML:ASF Y:\EmotionMaleHayes\Project 1\Capture day 1\Session 1\Male1.ASF
:FULLY-SPECIFIED
:DEGREES
979
root 20.0923 16.5498 -17.8202 537.865 227.824 179.962
lowerback 10.2513 -0.582805 -2.7199
upperback 4.42073 -1.11933 -0.629732
thorax -1.11047 -0.617698 1.00116
lowerneck -19.3612 9.248 12.6584
upperneck 23.8332 12.8712 -13.6017
head 12.9872 5.19459 -5.07331
rclavicle 1.74931e-014 1.98785e-015
rhumerus -73.8808 5.55346 -98.4989
rradius 48.3282
rwrist -21.3226
rhand -13.8558 -36.3208
rfingers 7.12502
rthumb 12.2682 -65.9409
lclavicle 1.74931e-014 1.98785e-015
lhumerus -33.9783 -45.0115 83.2475
lradius 91.9938
lwrist 16.3877
lhand -24.2887 -23.5145
lfingers 7.12502
lthumb 2.19853 6.45391
rfemur -16.0073 12.4717 -6.00709
rtibia 9.8903
rfoot -2.95866 -8.41151
rtoes -5.19051
lfemur -0.562805 -11.3583 -30.7511
ltibia 40.3873
lfoot -21.5992 -9.60232
ltoes 18.3512
980
root 19.8448 16.4879 -17.8097 537.781 225.848 180.324
lowerback 9.87819 -0.709361 -2.9394
upperback 4.43741 -1.2907 -0.724753
thorax -0.879537 -0.706302 1.03726
lowerneck -19.2022 9.11174 12.3341
upperneck 23.6492 12.7021 -13.3532
head 12.8047 5.13301 -4.95024
rclavicle -1.2921e-015 7.95139e-015
rhumerus -75.6304 4.70982 -99.3296
rradius 49.4998
rwrist -21.512
rhand -13.4832 -35.7754
rfingers 7.12502
rthumb 12.6273 -65.3738
lclavicle -1.2921e-015 7.95139e-015
lhumerus -31.5908 -45.8111 81.4862
lradius 93.4057
lwrist 15.9754
lhand -24.57 -23.6758
lfingers 7.12502
lthumb 1.92691 6.29524
rfemur -16.0222 11.1468 -6.90017
rtibia 10.008
rfoot -1.48847 -7.38301
rtoes -0.408656
lfemur -0.682566 -11.5395 -30.4404
ltibia 41.9059
lfoot -22.4363 -10.3631
ltoes 17.2178
981
root 19.5917 16.4124 -17.7978 537.594 223.867 180.662
lowerback 9.62979 -0.848758 -3.15743
upperback 4.47016 -1.48219 -0.809329
thorax -0.698096 -0.805361 1.08572
lowerneck -18.8695 9.01466 11.897
upperneck 23.4148 12.5907 -12.9495
head 12.5565 5.1133 -4.73899
rclavicle 4.46272e-014 -2.78299e-015
rhumerus -77.107 3.98703 -100.315
rradius 50.0958
rwrist -21.2808
rhand -13.3316 -35.1526
rfingers 7.12502
rthumb 12.7735 -64.7418
lclavicle 4.46272e-014 -2.78299e-015
lhumerus -29.3649 -46.2733 79.8789
lradius 94.733
lwrist 15.5191
lhand -24.7758 -23.7296
lfingers 7.12502
lthumb 1.72809 6.24319
rfemur -15.9193 10.0637 -7.49219
rtibia 10.8654
rfoot 0.0657856 -7.26488
rtoes 0.303553
lfemur -0.529019 -11.965 -30.2049
ltibia 43.2655
lfoot -22.2604 -11.3653
ltoes 19.0648
982
root 19.3512 16.3356 -17.8096 539.252 222.532 178.489
lowerback 9.68059 -0.841886 -1.37731
upperback 4.3159 -1.31225 -0.58754
thorax -0.931461 -0.694042 0.302499
lowerneck -18.288 8.90649 11.9313
upperneck 23.1712 12.3575 -12.606
head 12.2802 5.08538 -4.66233
rclavicle 1.11319e-014 -1.70955e-014
rhumerus -78.655 2.95103 -101.538
rradius 50.81
rwrist -20.8891
rhand -13.1957 -34.8465
rfingers 7.12502
rthumb 12.9045 -64.4275
lclavicle 1.11319e-014 -1.70955e-014
lhumerus -27.2184 -46.8826 78.1845
lradius 95.9462
lwrist 15.1317
lhand -25.0963 -23.7138
lfingers 7.12502
lthumb 1.41855 6.26124
rfemur -16.666 9.8985 -5.58761
rtibia 12.87
rfoot 0.690204 -7.82041
rtoes -1.00707
lfemur -0.727663 -12.1598 -27.5211
ltibia 44.6466
lfoot -22.9399 -11.275
ltoes 14.726
983
root 19.0975 16.242 -17.7995 539.155 220.73 178.617
lowerback 9.55998 -0.830901 -1.27931
upperback 4.23503 -1.28751 -0.803796
thorax -0.956789 -0.676435 0.0207045
lowerneck -17.3102 8.76312 12.23
upperneck 22.7093 12.0712 -12.4547
head 11.8713 5.05236 -4.71945
rclavicle 3.12092e-014 2.78299e-015
rhumerus -80.3583 1.93942 -102.859
rradius 51.7498
rwrist -20.3287
rhand -12.8025 -34.7115
rfingers 7.12502
rthumb 13.2836 -64.2682
lclavicle 3.12092e-014 2.78299e-015
lhumerus -25.2538 -47.3786 76.8507
lradius 97.0474
lwrist 14.705
lhand -25.5282 -23.6106
lfingers 7.12502
lthumb 1.00143 6.36678
rfemur -16.6759 8.20003 -5.45859
rtibia 14.9987
rfoot -0.0942892 -7.21297
rtoes -5.21111
lfemur -0.531757 -13.2523 -27.3052
ltibia 46.1424
lfoot -23.1394 -11.6135
ltoes 14.4674
984
root 18.8399 16.1414 -17.7949 538.926 219.08 178.791
lowerback 9.41181 -0.856246 -1.80866
upperback 4.35226 -1.3591 -0.726819
thorax -0.738664 -0.720733 0.399888
lowerneck -16.4067 8.70419 12.3918
upperneck 22.0565 11.9988 -12.5647
head 11.4533 5.07038 -4.80775
rclavicle -8.13029e-014 1.59028e-014
rhumerus -81.7541 1.77372 -104.045
rradius 52.7709
rwrist -19.7661
rhand -12.5151 -34.7384
rfingers 7.12502
rthumb 13.5606 -64.2768
lclavicle -8.13029e-014 1.59028e-014
lhumerus -23.4922 -46.9293 75.9884
lradius 98.0449
lwrist 14.2522
lhand -25.8606 -23.6369
lfingers 7.12502
lthumb 0.680411 6.34179
rfemur -16.3129 7.33387 -5.1842
rtibia 17.0058
rfoot -2.91955 -7.26223
rtoes -10.3588
lfemur -0.268716 -14.4941 -27.1754
ltibia 47.7012
lfoot -23.2805 -12.0176
ltoes 15.4759
985
root 18.5793 16.036 -17.789 538.715 217.63 178.726
lowerback 9.38387 -0.998595 -2.61201
upperback 4.68758 -1.60532 -0.317847
thorax -0.334676 -0.867511 1.28985
lowerneck -16.8989 8.90459 11.5819
upperneck 22.1546 12.3531 -12.1088
head 11.5452 5.19217 -4.42455
rclavicle 2.83268e-014 -1.19271e-014
rhumerus -82.4569 2.88265 -105.262
rradius 53.388
rwrist -19.3294
rhand -12.6218 -34.8684
rfingers 7.12502
rthumb 13.4577 -64.4137
lclavicle 2.83268e-014 -1.19271e-014
lhumerus -21.8094 -45.5034 75.3508
lradius 98.872
lwrist 13.9126
lhand -26.2206 -23.968
lfingers 7.12502
lthumb 0.332668 6.01152
rfemur -15.5742 6.67612 -4.47757
rtibia 18.8412
rfoot -6.3357 -8.04952
rtoes -16.3283
lfemur 0.140824 -15.5637 -26.8103
ltibia 49.1577
lfoot -23.7708 -11.6633
ltoes 12.8887
986
root 18.3183 15.9302 -17.7869 538.441 216.421 178.567
lowerback 9.71377 -0.944663 -3.03401
upperback 4.91578 -1.577 -0.163176
thorax -0.261792 -0.866982 1.68792
lowerneck -17.5959 8.96496 11.0972
upperneck 22.4922 12.4156 -11.6094
head 11.7437 5.20362 -4.131
rclavicle -8.22969e-014 1.35174e-014
rhumerus -82.738 3.62379 -106.86
rradius 53.4144
rwrist -18.8121
rhand -12.8901 -34.7592
rfingers 7.12502
rthumb 13.1992 -64.3213
lclavicle -8.22969e-014 1.35174e-014
lhumerus -20.3277 -44.8626 74.5222
lradius 99.7662
lwrist 13.9725
lhand -26.8961 -24.271
lfingers 7.12502
lthumb -0.319781 5.70851
rfemur -14.8315 5.76376 -3.61909
rtibia 20.6117
rfoot -8.97194 -8.89574
rtoes -22.9338
lfemur 0.631837 -16.4614 -26.2992
ltibia 50.6216
lfoot -24.1767 -11.239
ltoes 10.0182
987
root 18.0788 15.8264 -17.7865 537.841 215.438 178.999
lowerback 10.245 -0.725454 -3.51666
upperback 4.96548 -1.35354 -0.427523
thorax -0.50513 -0.757505 1.67482
lowerneck -17.789 8.89379 11.0743
upperneck 22.6085 12.2057 -11.2081
head 11.7635 5.14693 -4.01044
rclavicle -4.26393e-014 7.55382e-015
rhumerus -82.7565 3.45963 -108.25
rradius 52.8999
rwrist -17.5197
rhand -13.0948 -34.3787
rfingers 7.12502
rthumb 13.0018 -63.9535
lclavicle -4.26393e-014 7.55382e-015
lhumerus -19.318 -44.7604 73.8645
lradius 100.608
lwrist 14.1944
lhand -27.8455 -24.5436
lfingers 7.12502
lthumb -1.23672 5.43258
rfemur -14.5996 3.98086 -3.55895
rtibia 22.6573
rfoot -10.5114 -8.22326
rtoes -26.6454
lfemur 1.02142 -17.2442 -26.3777
ltibia 52.1936
lfoot -24.1386 -12.0319
ltoes 11.3631
